<?xml version="1.0" encoding="UTF-8" standalone="no"?>
<!-- Created with Inkscape (http://www.inkscape.org/) -->

<svg
   xmlns:dc="http://purl.org/dc/elements/1.1/"
   xmlns:cc="http://creativecommons.org/ns#"
   xmlns:rdf="http://www.w3.org/1999/02/22-rdf-syntax-ns#"
   xmlns:svg="http://www.w3.org/2000/svg"
   xmlns="http://www.w3.org/2000/svg"
   xmlns:sodipodi="http://sodipodi.sourceforge.net/DTD/sodipodi-0.dtd"
   xmlns:inkscape="http://www.inkscape.org/namespaces/inkscape"
   sodipodi:docname="logo-gradient-dark.svg"
   inkscape:version="0.92.1 r15371"
   id="svg4827"
   version="1.1"
   viewBox="0 0 300 50"
   height="50mm"
   width="300mm"
   inkscape:export-filename="C:\Users\Josh\Documents\Development\tycho2\public\static\img\logo-gradient-light.png"
   inkscape:export-xdpi="76.18"
   inkscape:export-ydpi="76.18">
  <defs
     id="defs4821">
    <filter
       style="color-interpolation-filters:sRGB;"
       inkscape:label="Invert"
       id="filter332">
      <feColorMatrix
         type="hueRotate"
         values="180"
         result="color1"
         id="feColorMatrix328" />
      <feColorMatrix
         values="0 0 -1 0 1 0 -1 0 0 1 -1 0 0 0 1 -0.21 -0.72 -0.07 2 0 "
         result="color2"
         id="feColorMatrix330" />
    </filter>
    <filter
       style="color-interpolation-filters:sRGB;"
       inkscape:label="Invert"
       id="filter338">
      <feColorMatrix
         type="hueRotate"
         values="180"
         result="color1"
         id="feColorMatrix334" />
      <feColorMatrix
         values="0 0 -1 0 1 0 -1 0 0 1 -1 0 0 0 1 -0.21 -0.72 -0.07 2 0 "
         result="color2"
         id="feColorMatrix336" />
    </filter>
    <filter
       style="color-interpolation-filters:sRGB;"
       inkscape:label="Invert"
       id="filter344">
      <feColorMatrix
         type="hueRotate"
         values="180"
         result="color1"
         id="feColorMatrix340" />
      <feColorMatrix
         values="0 0 -1 0 1 0 -1 0 0 1 -1 0 0 0 1 -0.21 -0.72 -0.07 2 0 "
         result="color2"
         id="feColorMatrix342" />
    </filter>
    <filter
       style="color-interpolation-filters:sRGB;"
       inkscape:label="Invert"
       id="filter350">
      <feColorMatrix
         type="hueRotate"
         values="180"
         result="color1"
         id="feColorMatrix346" />
      <feColorMatrix
         values="0 0 -1 0 1 0 -1 0 0 1 -1 0 0 0 1 -0.21 -0.72 -0.07 2 0 "
         result="color2"
         id="feColorMatrix348" />
    </filter>
    <filter
       style="color-interpolation-filters:sRGB;"
       inkscape:label="Invert"
       id="filter356">
      <feColorMatrix
         type="hueRotate"
         values="180"
         result="color1"
         id="feColorMatrix352" />
      <feColorMatrix
         values="0 0 -1 0 1 0 -1 0 0 1 -1 0 0 0 1 -0.21 -0.72 -0.07 2 0 "
         result="color2"
         id="feColorMatrix354" />
    </filter>
  </defs>
  <sodipodi:namedview
     inkscape:window-maximized="1"
     inkscape:window-y="-9"
     inkscape:window-x="-9"
     inkscape:window-height="1373"
     inkscape:window-width="2560"
     showgrid="false"
     inkscape:current-layer="layer1"
     inkscape:document-units="mm"
     inkscape:cy="-3.4875783"
     inkscape:cx="133.85728"
     inkscape:zoom="0.9899495"
     inkscape:pageshadow="2"
     inkscape:pageopacity="0.0"
     borderopacity="1.0"
     bordercolor="#666666"
     pagecolor="#ffffff"
     id="base" />
  <metadata
     id="metadata4824">
    <rdf:RDF>
      <cc:Work
         rdf:about="">
        <dc:format>image/svg+xml</dc:format>
        <dc:type
           rdf:resource="http://purl.org/dc/dcmitype/StillImage" />
        <dc:title></dc:title>
      </cc:Work>
    </rdf:RDF>
  </metadata>
  <g
     inkscape:label="Layer 1"
     inkscape:groupmode="layer"
     id="layer1"
     transform="translate(0,-247)">
    <g
       aria-label="SOLAR SYSTEM SIMULATOR"
       transform="matrix(0.25488522,0,0,0.26458333,131.20206,353.1354)"
       style="font-style:normal;font-weight:normal;font-size:40px;line-height:1.25;font-family:sans-serif;letter-spacing:0px;word-spacing:0px;fill:#ffffff;fill-opacity:1;stroke:none;filter:url(#filter332)"
       id="flowRoot68">
      <path
         d="m 50.038187,-247.44077 v 3.776 H 38.966188 q -1.472,0 -2.144001,0.736 -0.672,0.704 -0.672,1.824 0,0.48 0.128001,0.96 0.159999,0.448 0.512,0.832 0.384,0.352 0.991999,0.576 0.608001,0.192 1.568001,0.192 h 5.056 q 2.207999,0 3.615999,0.576 1.408001,0.544 2.208,1.44 0.832,0.896 1.120001,2.048 0.319999,1.152 0.319999,2.304 0,1.376 -0.384,2.528 -0.384,1.152 -1.215999,2.016 -0.832001,0.832 -2.144001,1.312 -1.28,0.48 -3.135999,0.48 H 32.758187 v -3.776 h 12.160001 q 1.536,0 2.239999,-0.736 0.736,-0.768 0.736,-1.952 0,-0.512 -0.159999,-0.992 -0.160001,-0.512 -0.544001,-0.864 -0.384,-0.384 -1.056,-0.608 -0.639999,-0.224 -1.632,-0.224 h -5.023999 q -2.176,0 -3.552001,-0.544 -1.376,-0.544 -2.175999,-1.44 -0.768,-0.896 -1.088,-2.016 -0.288001,-1.12 -0.288001,-2.24 0,-1.344 0.352001,-2.464 0.384,-1.152 1.183999,-1.984 0.832,-0.832 2.112,-1.28 1.280001,-0.48 3.072001,-0.48 z"
         style="font-style:normal;font-variant:normal;font-weight:normal;font-stretch:normal;font-size:32px;font-family:Nasalization;-inkscape-font-specification:Nasalization;fill:#ffffff"
         id="path4845"
         inkscape:connector-curvature="0" />
      <path
         d="m 67.645188,-247.44077 q 4.735999,0 7.232,2.688 2.527999,2.688 2.527999,8.16 0,5.44 -2.527999,8.096 -2.496001,2.656 -7.232,2.656 h -2.944 q -4.736001,0 -7.264001,-2.656 -2.496,-2.656 -2.496,-8.096 0,-5.472 2.496,-8.16 2.528,-2.688 7.264001,-2.688 z m -2.944,3.776 q -3.136001,0 -4.576,1.664 -1.408,1.664 -1.408,5.408 0,3.712 1.408,5.344 1.407999,1.632 4.576,1.632 h 2.944 q 3.104,0 4.511999,-1.632 1.440001,-1.664 1.440001,-5.376 0,-3.712 -1.408,-5.376 -1.408,-1.664 -4.544,-1.664 z"
         style="font-style:normal;font-variant:normal;font-weight:normal;font-stretch:normal;font-size:32px;font-family:Nasalization;-inkscape-font-specification:Nasalization;fill:#ffffff"
         id="path4847"
         inkscape:connector-curvature="0" />
      <path
         d="m 85.418188,-247.44077 v 14.112 q 0,0.768 0.191999,1.472 0.224,0.672 0.736,1.184 0.512,0.48 1.344001,0.768 0.863999,0.288 2.143999,0.288 h 8.384 v 3.776 h -8.608 q -2.143999,0 -3.679999,-0.544 -1.504001,-0.576 -2.464,-1.568 -0.960001,-0.992 -1.408,-2.336 -0.416,-1.376 -0.416,-3.008 v -14.144 z"
         style="font-style:normal;font-variant:normal;font-weight:normal;font-stretch:normal;font-size:32px;font-family:Nasalization;-inkscape-font-specification:Nasalization;fill:#ffffff"
         id="path4849"
         inkscape:connector-curvature="0" />
      <path
         d="m 103.88519,-225.84077 h -4.160002 l 7.584002,-19.2 q 0.608,-1.536 1.696,-2.144 1.12,-0.64 2.848,-0.64 1.696,0 2.784,0.64 1.12,0.608 1.696,2.144 l 7.296,19.2 h -4.192 l -6.56,-17.376 q -0.288,-0.736 -1.056,-0.736 -0.768,0 -1.088,0.736 z"
         style="font-style:normal;font-variant:normal;font-weight:normal;font-stretch:normal;font-size:32px;font-family:Nasalization;-inkscape-font-specification:Nasalization;fill:#ffffff"
         id="path4851"
         inkscape:connector-curvature="0" />
      <path
         d="m 138.45169,-247.44077 q 1.824,0 3.136,0.544 1.312,0.512 2.144,1.408 0.864,0.864 1.248,2.048 0.416,1.184 0.416,2.464 0,1.024 -0.256,2.048 -0.256,0.992 -0.8,1.888 -0.544,0.864 -1.408,1.536 -0.864,0.672 -2.112,1.024 l 5.024,8.64 h -4.192 l -4.928,-8.352 h -5.632 q -0.544,0 -0.544,0.544 v 7.808 h -3.776 v -8.544 q 0,-1.824 0.8,-2.624 0.8,-0.8 2.592,-0.8 h 8.416 q 0.8,0 1.376,-0.256 0.576,-0.256 0.928,-0.672 0.352,-0.416 0.512,-0.96 0.192,-0.544 0.192,-1.12 0,-1.152 -0.736,-1.984 -0.704,-0.864 -2.272,-0.864 h -11.84 v -3.776 z"
         style="font-style:normal;font-variant:normal;font-weight:normal;font-stretch:normal;font-size:32px;font-family:Nasalization;-inkscape-font-specification:Nasalization;fill:#ffffff"
         id="path4853"
         inkscape:connector-curvature="0" />
      <path
         d="m 174.91319,-247.44077 v 3.776 h -11.072 q -1.472,0 -2.144,0.736 -0.672,0.704 -0.672,1.824 0,0.48 0.128,0.96 0.16,0.448 0.512,0.832 0.384,0.352 0.992,0.576 0.608,0.192 1.568,0.192 h 5.056 q 2.208,0 3.616,0.576 1.408,0.544 2.208,1.44 0.832,0.896 1.12,2.048 0.32,1.152 0.32,2.304 0,1.376 -0.384,2.528 -0.384,1.152 -1.216,2.016 -0.832,0.832 -2.144,1.312 -1.28,0.48 -3.136,0.48 h -12.032 v -3.776 h 12.16 q 1.536,0 2.24,-0.736 0.736,-0.768 0.736,-1.952 0,-0.512 -0.16,-0.992 -0.16,-0.512 -0.544,-0.864 -0.384,-0.384 -1.056,-0.608 -0.64,-0.224 -1.632,-0.224 h -5.024 q -2.176,0 -3.552,-0.544 -1.376,-0.544 -2.176,-1.44 -0.768,-0.896 -1.088,-2.016 -0.288,-1.12 -0.288,-2.24 0,-1.344 0.352,-2.464 0.384,-1.152 1.184,-1.984 0.832,-0.832 2.112,-1.28 1.28,-0.48 3.072,-0.48 z"
         style="font-style:normal;font-variant:normal;font-weight:normal;font-stretch:normal;font-size:32px;font-family:Nasalization;-inkscape-font-specification:Nasalization;fill:#ffffff"
         id="path4855"
         inkscape:connector-curvature="0" />
      <path
         d="m 182.42169,-247.44077 6.048,9.248 6.112,-9.248 h 4.48 l -8.704,12.288 v 9.312 h -3.808 v -9.312 l -8.704,-12.288 z"
         style="font-style:normal;font-variant:normal;font-weight:normal;font-stretch:normal;font-size:32px;font-family:Nasalization;-inkscape-font-specification:Nasalization;fill:#ffffff"
         id="path4857"
         inkscape:connector-curvature="0" />
      <path
         d="m 217.60069,-247.44077 v 3.776 h -11.072 q -1.472,0 -2.144,0.736 -0.672,0.704 -0.672,1.824 0,0.48 0.128,0.96 0.16,0.448 0.512,0.832 0.384,0.352 0.992,0.576 0.608,0.192 1.568,0.192 h 5.056 q 2.208,0 3.616,0.576 1.408,0.544 2.208,1.44 0.832,0.896 1.12,2.048 0.32,1.152 0.32,2.304 0,1.376 -0.384,2.528 -0.384,1.152 -1.216,2.016 -0.832,0.832 -2.144,1.312 -1.28,0.48 -3.136,0.48 h -12.032 v -3.776 h 12.16 q 1.536,0 2.24,-0.736 0.736,-0.768 0.736,-1.952 0,-0.512 -0.16,-0.992 -0.16,-0.512 -0.544,-0.864 -0.384,-0.384 -1.056,-0.608 -0.64,-0.224 -1.632,-0.224 h -5.024 q -2.176,0 -3.552,-0.544 -1.376,-0.544 -2.176,-1.44 -0.768,-0.896 -1.088,-2.016 -0.288,-1.12 -0.288,-2.24 0,-1.344 0.352,-2.464 0.384,-1.152 1.184,-1.984 0.832,-0.832 2.112,-1.28 1.28,-0.48 3.072,-0.48 z"
         style="font-style:normal;font-variant:normal;font-weight:normal;font-stretch:normal;font-size:32px;font-family:Nasalization;-inkscape-font-specification:Nasalization;fill:#ffffff"
         id="path4859"
         inkscape:connector-curvature="0" />
      <path
         d="m 237.21119,-247.44077 v 3.776 h -6.304 v 17.824 h -3.808 v -17.824 h -6.304 v -3.776 z"
         style="font-style:normal;font-variant:normal;font-weight:normal;font-stretch:normal;font-size:32px;font-family:Nasalization;-inkscape-font-specification:Nasalization;fill:#ffffff"
         id="path4861"
         inkscape:connector-curvature="0" />
      <path
         d="m 257.98919,-247.44077 v 3.776 h -10.816 q -1.728,0 -2.496,0.736 -0.768,0.736 -0.768,1.984 0,2.56 3.296,2.56 h 10.624 v 3.424 h -10.72 q -3.296,0 -3.296,2.624 0,1.28 0.8,2.016 0.8,0.704 2.464,0.704 h 10.944 v 3.776 h -10.944 q -1.92,0 -3.296,-0.448 -1.344,-0.448 -2.24,-1.216 -0.864,-0.8 -1.28,-1.888 -0.384,-1.088 -0.384,-2.336 0,-1.856 0.8,-3.072 0.8,-1.248 2.304,-1.888 -3.04,-1.248 -3.04,-4.864 0,-1.28 0.416,-2.368 0.416,-1.088 1.28,-1.856 0.896,-0.8 2.24,-1.216 1.376,-0.448 3.296,-0.448 z"
         style="font-style:normal;font-variant:normal;font-weight:normal;font-stretch:normal;font-size:32px;font-family:Nasalization;-inkscape-font-specification:Nasalization;fill:#ffffff"
         id="path4863"
         inkscape:connector-curvature="0" />
      <path
         d="m 266.67269,-225.84077 h -3.776 v -17.28 q 0,-2.112 1.184,-3.392 1.184,-1.312 3.616,-1.312 2.176,0 3.296,1.088 1.152,1.056 1.76,2.912 l 5.248,13.792 q 0.16,0.416 0.448,0.672 0.32,0.224 0.768,0.224 0.48,0 0.8,-0.32 0.32,-0.352 0.32,-0.896 v -12.768 q 0,-2.112 1.184,-3.392 1.184,-1.312 3.584,-1.312 2.144,0 3.296,1.088 1.184,1.056 1.824,2.912 l 6.688,17.984 h -4.064 l -6.432,-17.408 q -0.16,-0.416 -0.48,-0.672 -0.288,-0.256 -0.736,-0.256 -0.48,0 -0.8,0.352 -0.288,0.32 -0.288,0.896 v 12.736 q 0,2.144 -1.216,3.456 -1.184,1.28 -3.584,1.28 -2.144,0 -3.296,-1.056 -1.152,-1.088 -1.792,-2.944 l -5.248,-13.792 q -0.16,-0.416 -0.48,-0.672 -0.288,-0.256 -0.704,-0.256 -0.512,0 -0.832,0.352 -0.288,0.32 -0.288,0.896 z"
         style="font-style:normal;font-variant:normal;font-weight:normal;font-stretch:normal;font-size:32px;font-family:Nasalization;-inkscape-font-specification:Nasalization;fill:#ffffff"
         id="path4865"
         inkscape:connector-curvature="0" />
      <path
         d="m 325.35069,-247.44077 v 3.776 h -11.072 q -1.472,0 -2.144,0.736 -0.672,0.704 -0.672,1.824 0,0.48 0.128,0.96 0.16,0.448 0.512,0.832 0.384,0.352 0.992,0.576 0.608,0.192 1.568,0.192 h 5.056 q 2.208,0 3.616,0.576 1.408,0.544 2.208,1.44 0.832,0.896 1.12,2.048 0.32,1.152 0.32,2.304 0,1.376 -0.384,2.528 -0.384,1.152 -1.216,2.016 -0.832,0.832 -2.144,1.312 -1.28,0.48 -3.136,0.48 h -12.032 v -3.776 h 12.16 q 1.536,0 2.24,-0.736 0.736,-0.768 0.736,-1.952 0,-0.512 -0.16,-0.992 -0.16,-0.512 -0.544,-0.864 -0.384,-0.384 -1.056,-0.608 -0.64,-0.224 -1.632,-0.224 h -5.024 q -2.176,0 -3.552,-0.544 -1.376,-0.544 -2.176,-1.44 -0.768,-0.896 -1.088,-2.016 -0.288,-1.12 -0.288,-2.24 0,-1.344 0.352,-2.464 0.384,-1.152 1.184,-1.984 0.832,-0.832 2.112,-1.28 1.28,-0.48 3.072,-0.48 z"
         style="font-style:normal;font-variant:normal;font-weight:normal;font-stretch:normal;font-size:32px;font-family:Nasalization;-inkscape-font-specification:Nasalization;fill:#ffffff"
         id="path4867"
         inkscape:connector-curvature="0" />
      <path
         d="m 334.95469,-247.44077 v 21.6 h -3.776 v -21.6 z"
         style="font-style:normal;font-variant:normal;font-weight:normal;font-stretch:normal;font-size:32px;font-family:Nasalization;-inkscape-font-specification:Nasalization;fill:#ffffff"
         id="path4869"
         inkscape:connector-curvature="0" />
      <path
         d="m 343.92269,-225.84077 h -3.776 v -17.28 q 0,-2.112 1.184,-3.392 1.184,-1.312 3.616,-1.312 2.176,0 3.296,1.088 1.152,1.056 1.76,2.912 l 5.248,13.792 q 0.16,0.416 0.448,0.672 0.32,0.224 0.768,0.224 0.48,0 0.8,-0.32 0.32,-0.352 0.32,-0.896 v -12.768 q 0,-2.112 1.184,-3.392 1.184,-1.312 3.584,-1.312 2.144,0 3.296,1.088 1.184,1.056 1.824,2.912 l 6.688,17.984 h -4.064 l -6.432,-17.408 q -0.16,-0.416 -0.48,-0.672 -0.288,-0.256 -0.736,-0.256 -0.48,0 -0.8,0.352 -0.288,0.32 -0.288,0.896 v 12.736 q 0,2.144 -1.216,3.456 -1.184,1.28 -3.584,1.28 -2.144,0 -3.296,-1.056 -1.152,-1.088 -1.792,-2.944 l -5.248,-13.792 q -0.16,-0.416 -0.48,-0.672 -0.288,-0.256 -0.704,-0.256 -0.512,0 -0.832,0.352 -0.288,0.32 -0.288,0.896 z"
         style="font-style:normal;font-variant:normal;font-weight:normal;font-stretch:normal;font-size:32px;font-family:Nasalization;-inkscape-font-specification:Nasalization;fill:#ffffff"
         id="path4871"
         inkscape:connector-curvature="0" />
      <path
         d="m 379.79619,-247.44077 v 14.432 q 0,1.632 0.832,2.528 0.864,0.864 2.752,0.864 h 3.84 q 1.824,0 2.688,-0.864 0.864,-0.896 0.864,-2.528 v -14.432 h 3.712 v 14.72 q 0,3.424 -1.76,5.152 -1.76,1.728 -5.248,1.728 h -4.544 q -6.976,0 -6.976,-6.88 v -14.72 z"
         style="font-style:normal;font-variant:normal;font-weight:normal;font-stretch:normal;font-size:32px;font-family:Nasalization;-inkscape-font-specification:Nasalization;fill:#ffffff"
         id="path4873"
         inkscape:connector-curvature="0" />
      <path
         d="m 403.10569,-247.44077 v 14.112 q 0,0.768 0.192,1.472 0.224,0.672 0.736,1.184 0.512,0.48 1.344,0.768 0.864,0.288 2.144,0.288 h 8.384 v 3.776 h -8.608 q -2.144,0 -3.68,-0.544 -1.504,-0.576 -2.464,-1.568 -0.96,-0.992 -1.408,-2.336 -0.416,-1.376 -0.416,-3.008 v -14.144 z"
         style="font-style:normal;font-variant:normal;font-weight:normal;font-stretch:normal;font-size:32px;font-family:Nasalization;-inkscape-font-specification:Nasalization;fill:#ffffff"
         id="path4875"
         inkscape:connector-curvature="0" />
      <path
         d="m 421.57269,-225.84077 h -4.16 l 7.584,-19.2 q 0.608,-1.536 1.696,-2.144 1.12,-0.64 2.848,-0.64 1.696,0 2.784,0.64 1.12,0.608 1.696,2.144 l 7.296,19.2 h -4.192 l -6.56,-17.376 q -0.288,-0.736 -1.056,-0.736 -0.768,0 -1.088,0.736 z"
         style="font-style:normal;font-variant:normal;font-weight:normal;font-stretch:normal;font-size:32px;font-family:Nasalization;-inkscape-font-specification:Nasalization;fill:#ffffff"
         id="path4877"
         inkscape:connector-curvature="0" />
      <path
         d="m 456.96119,-247.44077 v 3.776 h -6.304 v 17.824 h -3.808 v -17.824 h -6.304 v -3.776 z"
         style="font-style:normal;font-variant:normal;font-weight:normal;font-stretch:normal;font-size:32px;font-family:Nasalization;-inkscape-font-specification:Nasalization;fill:#ffffff"
         id="path4879"
         inkscape:connector-curvature="0" />
      <path
         d="m 471.77019,-247.44077 q 4.736,0 7.232,2.688 2.528,2.688 2.528,8.16 0,5.44 -2.528,8.096 -2.496,2.656 -7.232,2.656 h -2.944 q -4.736,0 -7.264,-2.656 -2.496,-2.656 -2.496,-8.096 0,-5.472 2.496,-8.16 2.528,-2.688 7.264,-2.688 z m -2.944,3.776 q -3.136,0 -4.576,1.664 -1.408,1.664 -1.408,5.408 0,3.712 1.408,5.344 1.408,1.632 4.576,1.632 h 2.944 q 3.104,0 4.512,-1.632 1.44,-1.664 1.44,-5.376 0,-3.712 -1.408,-5.376 -1.408,-1.664 -4.544,-1.664 z"
         style="font-style:normal;font-variant:normal;font-weight:normal;font-stretch:normal;font-size:32px;font-family:Nasalization;-inkscape-font-specification:Nasalization;fill:#ffffff"
         id="path4881"
         inkscape:connector-curvature="0" />
      <path
         d="m 497.63919,-247.44077 q 1.824,0 3.136,0.544 1.312,0.512 2.144,1.408 0.864,0.864 1.248,2.048 0.416,1.184 0.416,2.464 0,1.024 -0.256,2.048 -0.256,0.992 -0.8,1.888 -0.544,0.864 -1.408,1.536 -0.864,0.672 -2.112,1.024 l 5.024,8.64 h -4.192 l -4.928,-8.352 h -5.632 q -0.544,0 -0.544,0.544 v 7.808 h -3.776 v -8.544 q 0,-1.824 0.8,-2.624 0.8,-0.8 2.592,-0.8 h 8.416 q 0.8,0 1.376,-0.256 0.576,-0.256 0.928,-0.672 0.352,-0.416 0.512,-0.96 0.192,-0.544 0.192,-1.12 0,-1.152 -0.736,-1.984 -0.704,-0.864 -2.272,-0.864 h -11.84 v -3.776 z"
         style="font-style:normal;font-variant:normal;font-weight:normal;font-stretch:normal;font-size:32px;font-family:Nasalization;-inkscape-font-specification:Nasalization;fill:#ffffff"
         id="path4883"
         inkscape:connector-curvature="0" />
    </g>
    <g
       aria-label="Harry.io"
       transform="matrix(0.96334572,0,0,1,2.5648687,0)"
       style="font-style:normal;font-weight:normal;font-size:10.58333302px;line-height:1.25;font-family:sans-serif;letter-spacing:0px;word-spacing:0px;fill:#ffffff;fill-opacity:1;stroke:none;stroke-width:0.26458332;filter:url(#filter338)"
       id="text4804">
      <path
         d="m 119.70018,253.27659 v 5.32836 h -8.89565 v 25.15164 h -5.37351 v -25.15164 h -8.895641 v -5.32836 z"
         style="font-style:normal;font-variant:normal;font-weight:normal;font-stretch:normal;font-size:45.15555573px;font-family:Nasalization;-inkscape-font-specification:Nasalization;fill:#ffffff;stroke-width:0.26458332"
         id="path4523" />
      <path
         d="m 150.21828,259.91446 -14.35947,33.41511 h -5.14773 l 4.4704,-10.43093 q -2.032,0 -2.98027,-0.67734 -0.90311,-0.67733 -1.49013,-2.25777 l -7.99253,-20.04907 h 5.05742 l 7.17973,17.74613 q 0.22578,0.63218 0.49671,0.8128 0.27094,0.18062 0.94827,0.18062 h 0.63218 l 8.08284,-18.73955 z"
         style="font-style:normal;font-variant:normal;font-weight:normal;font-stretch:normal;font-size:45.15555573px;font-family:Nasalization;-inkscape-font-specification:Nasalization;fill:#ffffff;stroke-width:0.26458332"
         id="path4525" />
      <path
         d="m 174.6559,259.91446 v 4.60587 h -11.83075 q -3.11574,0 -4.56072,1.71591 -1.39982,1.71591 -1.39982,5.59929 0,3.88337 1.39982,5.59928 1.44498,1.67076 4.56072,1.67076 h 11.83075 v 4.65102 h -12.28231 q -4.78649,0 -7.58613,-2.93511 -2.75449,-2.93511 -2.75449,-8.98595 0,-6.05085 2.75449,-8.98596 2.79964,-2.93511 7.58613,-2.93511 z"
         style="font-style:normal;font-variant:normal;font-weight:normal;font-stretch:normal;font-size:45.15555573px;font-family:Nasalization;-inkscape-font-specification:Nasalization;fill:#ffffff;stroke-width:0.26458332"
         id="path4527" />
      <path
         d="m 185.11223,249.57384 v 10.34062 h 8.39894 q 6.05084,0 9.03111,2.75449 2.98026,2.75449 2.98026,7.67644 v 13.4112 h -4.83164 v -13.4112 q 0,-2.75449 -1.71591,-4.28978 -1.71591,-1.53528 -5.46382,-1.53528 h -8.39894 v 19.23626 h -4.78649 v -34.18275 z"
         style="font-style:normal;font-variant:normal;font-weight:normal;font-stretch:normal;font-size:45.15555573px;font-family:Nasalization;-inkscape-font-specification:Nasalization;fill:#ffffff;stroke-width:0.26458332"
         id="path4529" />
      <path
         d="m 226.47613,259.91446 q 4.74134,0 7.54098,2.98027 2.79965,2.93511 2.79965,8.9408 0,6.05084 -2.79965,8.98595 -2.79964,2.93511 -7.54098,2.93511 h -5.01226 q -4.78649,0 -7.58614,-2.93511 -2.75448,-2.93511 -2.75448,-8.98595 0,-6.05085 2.75448,-8.98596 2.79965,-2.93511 7.58614,-2.93511 z m -4.56071,4.60587 q -3.11573,0 -4.56071,1.71591 -1.39982,1.71591 -1.39982,5.59929 0,3.88337 1.39982,5.59928 1.44498,1.67076 4.56071,1.67076 h 4.10916 q 3.11573,0 4.51555,-1.67076 1.44498,-1.71591 1.44498,-5.59928 0,-3.88338 -1.44498,-5.59929 -1.39982,-1.71591 -4.51555,-1.71591 z"
         style="font-style:normal;font-variant:normal;font-weight:normal;font-stretch:normal;font-size:45.15555573px;font-family:Nasalization;-inkscape-font-specification:Nasalization;fill:#ffffff;stroke-width:0.26458332"
         id="path4531" />
      <path
         d="m 246.31495,277.61544 v 6.14115 h -5.14773 v -6.14115 z"
         style="font-style:normal;font-variant:normal;font-weight:normal;font-stretch:normal;font-size:45.15555573px;font-family:Nasalization;-inkscape-font-specification:Nasalization;fill:#ffffff;stroke-width:0.26458332"
         id="path4533" />
      <path
         d="m 252.64519,283.75659 z m 4.78649,-23.84213 v 23.84213 h -4.78649 v -23.84213 z m 0.0452,-8.98596 v 5.55414 h -4.83165 v -5.55414 z"
         style="font-style:normal;font-variant:normal;font-weight:normal;font-stretch:normal;font-size:45.15555573px;font-family:Nasalization;-inkscape-font-specification:Nasalization;fill:#ffffff;stroke-width:0.26458332"
         id="path4535" />
      <path
         d="m 278.51086,259.91446 q 4.74133,0 7.54097,2.98027 2.79965,2.93511 2.79965,8.9408 0,6.05084 -2.79965,8.98595 -2.79964,2.93511 -7.54097,2.93511 h -5.01227 q -4.78649,0 -7.58613,-2.93511 -2.75449,-2.93511 -2.75449,-8.98595 0,-6.05085 2.75449,-8.98596 2.79964,-2.93511 7.58613,-2.93511 z m -4.56071,4.60587 q -3.11574,0 -4.56072,1.71591 -1.39982,1.71591 -1.39982,5.59929 0,3.88337 1.39982,5.59928 1.44498,1.67076 4.56072,1.67076 h 4.10915 q 3.11573,0 4.51556,-1.67076 1.44497,-1.71591 1.44497,-5.59928 0,-3.88338 -1.44497,-5.59929 -1.39983,-1.71591 -4.51556,-1.71591 z"
         style="font-style:normal;font-variant:normal;font-weight:normal;font-stretch:normal;font-size:45.15555573px;font-family:Nasalization;-inkscape-font-specification:Nasalization;fill:#ffffff;stroke-width:0.26458332"
         id="path4537" />
    </g>
    <path
       style="fill:#ffffff;fill-opacity:1;stroke-width:0.26726952;filter:url(#filter344)"
       d="m 241.3208,280.68387 v -3.0736 h 2.40542 2.40543 v 3.0736 3.0736 h -2.40543 -2.40542 z"
       id="path26"
       inkscape:connector-curvature="0"
       transform="matrix(0.96334572,0,0,1,2.5648687,0)" />
    <path
       style="fill:#ffffff;fill-opacity:1;stroke-width:0.26726952;filter:url(#filter350)"
       d="m 267.84789,271.86398 c -0.003,-0.588 0.0493,-0.86001 0.11623,-0.60448 0.0669,0.25554 0.0693,0.73662 0.005,1.06908 -0.0639,0.33246 -0.11866,0.12339 -0.12163,-0.4646 z"
       id="path32"
       inkscape:connector-curvature="0"
       transform="matrix(0.96334572,0,0,1,2.5648687,0)" />
    <path
       style="fill:#ffffff;stroke-width:0;filter:url(#filter356)"
       d="m 22.163748,296.63073 c 9.223341,-1.24758 21.7285,-5.335 31.800332,-10.39423 l 1.534217,-0.77066 -0.246441,0.69849 c -0.49166,1.39351 -1.840889,3.85267 -2.855539,5.20461 -1.073136,1.42988 -3.323639,3.66451 -4.423652,4.39246 -0.771853,0.51079 -0.799244,0.70543 -0.08689,0.61741 3.782036,-0.4673 5.878885,-1.03364 8.270331,-2.23372 6.310066,-3.16655 10.658577,-8.72422 12.374478,-15.81538 0.137892,-0.56985 0.311418,-0.79849 0.87371,-1.15123 3.867474,-2.42611 10.507109,-7.68161 13.888065,-10.99288 5.675761,-5.55877 8.470911,-10.69277 7.575791,-13.91481 -0.60086,-2.16286 -2.647847,-3.55076 -6.171104,-4.18415 -1.600429,-0.28771 -6.835795,-0.28934 -9.171554,-0.003 -4.654996,0.57096 -10.095997,1.83518 -15.837977,3.67997 l -2.080652,0.66847 -1.043868,-0.57378 c -1.390111,-0.7641 -4.60879,-1.83782 -6.467708,-2.15756 -2.091378,-0.35972 -7.087109,-0.3177 -7.087109,0.0596 0,0.0581 0.28096,0.254 0.624355,0.43536 0.343397,0.18136 1.351165,0.8747 2.239487,1.54076 5.300105,3.97399 9.112131,10.7373 10.54911,18.71626 0.219007,1.21604 0.594506,5.03449 0.594506,6.04549 0,0.43815 0.503547,0.31112 2.251198,-0.56787 4.144667,-2.08458 7.60779,-5.92833 8.508324,-9.44346 0.256342,-1.00059 0.255966,-1.00392 -0.260059,-2.31179 -0.796428,-2.01853 -2.094022,-4.34203 -3.245889,-5.81214 -0.972861,-1.24165 -3.09157,-3.44531 -3.818661,-3.97177 -0.174396,-0.12627 -0.249433,-0.2697 -0.166755,-0.31871 0.08268,-0.049 1.200888,-0.35745 2.484906,-0.68541 11.983831,-3.06083 20.13496,-2.49005 21.496302,1.50524 0.655591,1.92407 -0.0096,4.12739 -2.153057,7.13111 -2.309966,3.23713 -7.032673,7.5545 -12.581682,11.50183 -2.039583,1.45087 -6.161424,4.1602 -7.376075,4.84837 -0.161881,0.0917 -1.403041,0.81459 -2.758132,1.6064 -1.355087,0.7918 -2.914037,1.68576 -3.464331,1.98658 -11.685346,6.38773 -26.060194,10.83137 -35.038741,10.83137 -4.433739,0 -7.144059,-1.05623 -8.00944,-3.12131 -0.856707,-2.04439 0.634213,-5.76567 3.759554,-9.38369 1.796443,-2.07963 4.577719,-4.72393 6.813001,-6.47745 l 0.708711,-0.55597 v -1.39357 c 0,-0.76646 -0.05628,-1.42808 -0.125068,-1.47027 -0.131953,-0.0809 -1.548155,0.9216 -3.990847,2.82509 -5.862821,4.56865 -10.1024811,8.99579 -12.3251831,12.87021 -1.498327,2.61175 -1.986832,5.40398 -1.221887,6.98413 0.363702,0.75132 1.702533,2.06798 2.546631,2.50448 0.871715,0.45079 2.3206961,0.90087 3.6936031,1.14731 1.875445,0.33665 6.575907,0.28858 9.421685,-0.0964 z"
       id="path3731"
       inkscape:connector-curvature="0"
       transform="matrix(0.96334572,0,0,1,2.5648687,0)" />
  </g>
</svg>
